<svg xmlns="http://www.w3.org/2000/svg" viewBox="0 0 512 512" role="img" aria-label="FILMTAP">
  <defs>
    <clipPath id="rounded">
      <rect width="512" height="512" rx="84" ry="84"/>
    </clipPath>
  </defs>
  <g clip-path="url(#rounded)">
    <rect width="512" height="512" fill="#F2C338"/>
    <rect x="28" y="28" width="456" height="456" rx="70" fill="#23201A"/>
    <rect x="28" y="318" width="456" height="166" fill="#F2C338"/>
    <rect x="28" y="318" width="456" height="16" fill="#1A1712" opacity=".18"/>

    <g fill="#F4EAD0" opacity=".94">
      <rect x="66" y="66" width="30" height="20" rx="5"/>
      <rect x="109" y="66" width="30" height="20" rx="5"/>
      <rect x="152" y="66" width="30" height="20" rx="5"/>
      <rect x="195" y="66" width="30" height="20" rx="5"/>
      <rect x="238" y="66" width="30" height="20" rx="5"/>
      <rect x="281" y="66" width="30" height="20" rx="5"/>
      <rect x="324" y="66" width="30" height="20" rx="5"/>
      <rect x="367" y="66" width="30" height="20" rx="5"/>
      <rect x="410" y="66" width="30" height="20" rx="5"/>
    </g>

    <text x="76" y="216" font-family="Bricolage Grotesque, Arial Black, sans-serif" font-size="86" font-weight="800" letter-spacing="-5" fill="#E0463A">FILM</text>
    <text x="272" y="216" font-family="Bricolage Grotesque, Arial Black, sans-serif" font-size="86" font-weight="800" letter-spacing="-5" fill="#E0463A">TAP</text>
    <text x="64" y="202" font-family="Bricolage Grotesque, Arial Black, sans-serif" font-size="86" font-weight="800" letter-spacing="-5" fill="#F2C338">FILM</text>
    <text x="260" y="202" font-family="Bricolage Grotesque, Arial Black, sans-serif" font-size="86" font-weight="800" letter-spacing="-5" fill="#F4EAD0">TAP</text>

    <rect x="80" y="352" width="352" height="22" rx="11" fill="#0C0B09"/>
    <text x="146" y="418" font-family="Space Mono, monospace" font-size="28" font-weight="700" letter-spacing="5" fill="#17C0AD">FILTER</text>
    <rect x="150" y="434" width="212" height="18" rx="9" fill="#E0463A"/>
    <g fill="#F4EAD0">
      <rect x="172" y="438" width="18" height="10" rx="3"/>
      <rect x="206" y="438" width="18" height="10" rx="3"/>
      <rect x="240" y="438" width="18" height="10" rx="3"/>
      <rect x="274" y="438" width="18" height="10" rx="3"/>
      <rect x="308" y="438" width="18" height="10" rx="3"/>
    </g>
  </g>
</svg>
